<svg width="212" height="206" xmlns="http://www.w3.org/2000/svg">
 <g>
  <title>Layer 1</title>
  <path fill="#0470f4" stroke="#ffffff" stroke-width="4" opacity="undefined" transform="rotate(-0.321883, 106.087, 102.983)" d="m105.99991,184.99951c-82.29766,-1.20785 -82.2191,2.30325 -82,-82c0.2191,-84.30325 0.70232,-83.20223 82,-82c81.29768,1.20223 83.21346,-1.29765 82,82c-1.21346,83.29765 0.29767,83.20785 -82,82z" id="svg_1"/>
  <path id="svg_4" d="m-17.0368,73.69912l207.74042,0l0,24.13907l-207.74042,0l0,-24.13907z" transform="rotate(-45.8059, 86.8334, 85.7687)" opacity="undefined" stroke-width="4" stroke="#ffffff" fill="#ffee00"/>
  <path fill="#ffee00" stroke="#ffffff" stroke-width="5" transform="rotate(-45.8059, 125, 119)" d="m21.13975,107.32694l207.72054,0l0,23.34609l-207.72054,0l0,-23.34609z" id="svg_5"/>
  <line fill="none" stroke="#ffffff" stroke-width="4" x1="79" y1="182.5" x2="188" y2="70.5" id="svg_8"/>
  <line fill="none" stroke="#ffffff" stroke-width="4" x1="26" y1="131.5" x2="134" y2="19.5" id="svg_9"/>
  <line fill="none" stroke="#ffffff" stroke-width="4" x1="30" y1="162.5" x2="164" y2="23.5" id="svg_10"/>
  <line fill="none" stroke="#ffffff" stroke-width="4" x1="47" y1="180.5" x2="185" y2="40.5" id="svg_11"/>
 </g>

</svg>