<svg width="144" height="185" xmlns="http://www.w3.org/2000/svg" version="1.1">
 <g>
  <title>Layer 2</title>
 </g>

 <g>
  <title>Layer 1</title>
  <g id="svg_pin">
   <path id="svg_pin_2" fill="#ffffff" d="m72.05028,0c-39.79218,0 -72.05028,32.2581 -72.05028,72.05028c0.01702,18.36129 7.04391,36.02325 19.64458,49.37997l52.40571,62.70076l56.91783,-68.04497c9.77804,-12.5984 15.09992,-28.08486 15.13169,-44.03199c0,-39.79218 -32.2581,-72.05028 -72.05028,-72.05028l0.00076,-0.00378z"/>
  </g>
  <path id="svg_1" stroke-width="0.19997" fill="#529add" d="m127.17022,104.49519c-17.67,30.605 -56.806,41.092 -87.411,23.422c-30.605,-17.67 -41.092,-56.806 -23.422,-87.411c17.67,-30.605 56.806,-41.092 87.411,-23.422c30.605,17.67 41.092,56.806 23.422,87.411"/>
  <g id="svg_2">
   <path id="svg_3" fill-opacity="0.2" d="m51.17922,28.50719l0,7.9987l-15.997,0c-1.0546,12.363 6.0163,12.511 15.997,19.997l0,7.9987l-15.997,0c-1.0546,12.363 6.0163,12.511 15.997,19.997l0,7.9987l-15.997,0c-1.0546,12.363 6.0163,12.511 15.997,19.997l0,11.998l39.993,0l0,-11.998c9.9811,-7.4858 17.052,-7.6337 15.997,-19.997l-15.997,0l0,-7.9987c9.9811,-7.4858 17.052,-7.6337 15.997,-19.997l-15.997,0l0,-7.9987c9.9811,-7.4858 17.052,-7.6337 15.997,-19.997l-15.997,0l0,-7.9987l-39.993,0z"/>
   <path id="svg_4" fill="#888" d="m51.17922,24.50819l39.993,0l0,95.984l-39.993,0l0,-95.984z"/>
   <path id="svg_5" stroke-width="2.9995" stroke="#555" fill="#ff6969" d="m83.28622,45.96019a11.996,11.996 0 0 1 -11.996,11.996a11.996,11.996 0 0 1 -11.996,-11.996a11.996,11.996 0 0 1 11.996,-11.996a11.996,11.996 0 0 1 11.996,11.996"/>
   <path id="svg_6" stroke-width="2.9995" stroke="#555" fill="#ffff69" d="m83.29022,73.98319a11.998,11.998 0 0 1 -11.998,11.998a11.998,11.998 0 0 1 -11.998,-11.998a11.998,11.998 0 0 1 11.998,-11.998a11.998,11.998 0 0 1 11.998,11.998"/>
   <path id="svg_7" stroke-width="2.9995" stroke="#555" fill="#69ff69" d="m83.27222,102.00919a11.998,11.998 0 0 1 -11.998,11.998a11.998,11.998 0 0 1 -11.998,-11.998a11.998,11.998 0 0 1 11.998,-11.998a11.998,11.998 0 0 1 11.998,11.998"/>
   <path id="svg_8" fill-rule="evenodd" fill="#555" d="m51.17922,32.50719l-15.997,0c-1.0546,12.363 6.0163,12.511 15.997,19.997l0,-19.997z"/>
   <path id="svg_9" fill-rule="evenodd" fill="#555" d="m51.17922,60.50219l-15.997,0c-1.0546,12.363 6.0163,12.511 15.997,19.997l0,-19.997z"/>
   <path id="svg_10" fill-rule="evenodd" fill="#555" d="m51.17922,88.49719l-15.997,0c-1.0546,12.363 6.0163,12.511 15.997,19.997l0,-19.997z"/>
   <path id="svg_11" fill-rule="evenodd" fill="#555" d="m91.17222,32.50719l15.997,0c1.0546,12.363 -6.0163,12.511 -15.997,19.997l0,-19.997z"/>
   <path id="svg_12" fill-rule="evenodd" fill="#555" d="m91.17222,60.50219l15.997,0c1.0546,12.363 -6.0163,12.511 -15.997,19.997l0,-19.997z"/>
   <path id="svg_13" fill-rule="evenodd" fill="#555" d="m91.17222,88.49719l15.997,0c1.0546,12.363 -6.0163,12.511 -15.997,19.997l0,-19.997z"/>
   <path id="svg_14" fill-opacity="0.37647" fill="#fff" d="m83.27922,101.97519s-5.3717,7.9483 -11.998,7.9483c-6.6263,0 -11.987,-7.906 -11.987,-7.906c0,6.6263 5.3606,11.987 11.987,11.987c6.6263,0 11.998,-5.4029 11.998,-12.029l0,-0.0003z"/>
   <path id="svg_15" fill="#555" d="m65.17722,120.49019l12.063,0l0,15.997l-12.063,0l0,-15.997z"/>
   <path id="svg_16" fill-opacity="0.37647" fill="#fff" d="m83.26722,73.93719s-5.3717,7.9483 -11.998,7.9483s-11.987,-7.906 -11.987,-7.906c0,6.6263 5.3606,11.987 11.987,11.987s11.998,-5.4029 11.998,-12.029l0,-0.0003z"/>
   <path id="svg_17" fill-opacity="0.37647" fill="#fff" d="m83.26722,45.94219s-5.3717,7.9483 -11.998,7.9483s-11.987,-7.906 -11.987,-7.906c0,6.6263 5.3606,11.987 11.987,11.987s11.998,-5.4029 11.998,-12.029l0,-0.0003z"/>
   <path id="svg_18" fill-opacity="0.27" fill="#00ff0c" d="m99.40722,102.10419a27.66,27.66 0 0 1 -27.66,27.66a27.66,27.66 0 0 1 -27.66,-27.66a27.66,27.66 0 0 1 27.66,-27.66a27.66,27.66 0 0 1 27.66,27.66"/>
  </g>
 </g>
</svg>